<?xml version="1.0" encoding="UTF-8" standalone="no"?>
<!-- Created with Inkscape (http://www.inkscape.org/) -->

<svg
   version="1.1"
   id="svg1115"
   width="696.6781"
   height="897.07056"
   viewBox="0 0 696.6781 897.07056"
   sodipodi:docname="3.svg"
   inkscape:version="1.2.2 (732a01da63, 2022-12-09, custom)"
   xmlns:inkscape="http://www.inkscape.org/namespaces/inkscape"
   xmlns:sodipodi="http://sodipodi.sourceforge.net/DTD/sodipodi-0.dtd"
   xmlns="http://www.w3.org/2000/svg"
   xmlns:svg="http://www.w3.org/2000/svg">
  <defs
     id="defs1119" />
  <sodipodi:namedview
     id="namedview1117"
     pagecolor="#ffffff"
     bordercolor="#000000"
     borderopacity="0.25"
     inkscape:showpageshadow="2"
     inkscape:pageopacity="0.0"
     inkscape:pagecheckerboard="0"
     inkscape:deskcolor="#d1d1d1"
     showgrid="false"
     inkscape:zoom="0.83072205"
     inkscape:cx="315.38828"
     inkscape:cy="444.79378"
     inkscape:window-width="1846"
     inkscape:window-height="1016"
     inkscape:window-x="0"
     inkscape:window-y="0"
     inkscape:window-maximized="1"
     inkscape:current-layer="layer1" />
  <g
     inkscape:groupmode="layer"
     id="layer1"
     inkscape:label="Layer 1">
    <path
       style="fill:#000000;stroke-width:1.33333"
       d="m 116.68146,940.44589 c -21.479492,-2.48848 -34.387912,-7.52444 -44.214372,-17.24932 -6.64779,-6.57908 -11.42333,-17.04048 -12.67877,-27.77437 -0.39541,-3.38075 -2.49839,-10.15099 -4.67328,-15.04498 -7.70681,-17.34202 -7.66447,-33.10413 0.12972,-48.28912 l 4.0313,-7.85396 v -50.62209 -50.6221 l -3.89374,-8.19061 c -8.06649,-16.96817 -8.06799,-33.79056 -0.004,-48.76073 l 3.89814,-7.23678 V 494.52163 330.24144 l -4.04701,-8.64828 c -7.82391,-16.71932 -7.81863,-32.90852 0.0157,-48.17174 l 4.03129,-7.85396 v -66.32968 -66.32969 l -3.92161,-8.48304 c -2.15689,-4.66566 -4.58528,-12.24397 -5.39642,-16.84068 -4.85082,-27.48949 16.33298,-56.3005 45.31804,-61.634751 4.849652,-0.892504 115.260522,-1.235227 326.000002,-1.011924 l 318.66668,0.337662 0.3356,387.000013 c 0.33464,385.88937 0.34325,387.00001 3,387.00001 2.52155,0 2.6644,0.89362 2.6644,16.66667 v 16.66667 h -5.20035 c -5.15678,0 -5.21536,0.0587 -6.9939,7 -2.36174,9.2175 -2.1256,35.75972 0.38848,43.66666 1.7651,5.55138 2.27778,6.03095 6.85676,6.41383 l 4.94901,0.41381 v 15.91953 15.9195 l -309.66706,-0.17298 c -170.31667,-0.0951 -314.13424,-0.69056 -319.59461,-1.32318 z"
       transform="translate(-49.265033,-44.871498)"
       id="path1233" />
    <path
       style="fill:#5fbcd3;stroke-width:1.33333"
       d="M 434.7955,819.27538 H 732.60942 V 435.94204 52.608691 H 428.60941 124.6094 V 436.78993 820.97118 l 6.18609,-0.8479 c 3.40235,-0.46634 140.20236,-0.8479 304.00001,-0.8479 z"
       transform="translate(-49.265033,-44.871498)"
       id="path1269" />
    <path
       style="fill:#5fbcd3;stroke-width:1.33333"
       d="m 64.616048,848.59568 c 7.51757,-14.73566 22.50347,-23.20515 48.326682,-27.31251 l 5,-0.79529 V 436.42335 52.358804 l -13,0.458278 c -10.982842,0.387166 -14.182892,1.039152 -20.623442,4.201858 -19.87665,9.760674 -30.34553,29.366476 -27.13011,50.80846 1.00895,6.72816 2.62422,7.09459 3.86767,0.87738 1.32763,-6.63818 9.12439,-21.324939 14.6582,-27.611683 6.45176,-7.329582 16.30535,-12.478678 25.744092,-13.452842 l 7.15026,-0.737972 v 91.519887 91.51987 h -4.42467 c -6.066052,0 -17.749882,3.6132 -24.554942,7.59357 -8.06597,4.71789 -17.09572,15.33803 -20.28206,23.85427 -2.78381,7.44041 -3.53234,21.51645 -1.51833,28.55216 0.85666,2.99266 1.2004,2.58385 3.36339,-4 5.70985,-17.38006 16.00426,-31.46995 26.74994,-36.6125 2.93334,-1.4038 8.78334,-2.81238 13.000002,-3.13018 l 7.66667,-0.57783 v 187.96315 187.96317 l -8.678372,1.43805 c -17.642,2.92337 -32.4902,13.37935 -39.22629,27.62281 -3.53591,7.4767 -5.12564,22.47188 -3.1717,29.91724 l 1.20298,4.58392 3.07289,-8.58392 c 8.37624,-23.39849 21.87004,-36.69366 38.799972,-38.22881 l 8.00052,-0.72547 v 75.33334 75.33333 l -8.14093,0.7382 c -17.196362,1.55931 -35.144002,15.10575 -41.098272,31.01998 -2.78054,7.43165 -3.65337,20.53 -1.81777,27.27886 0.74605,2.74298 1.20649,1.86492 2.59979,-4.95772 0.93125,-4.56008 2.93997,-10.73497 4.46383,-13.72198 z"
       transform="translate(-49.265033,-44.871498)"
       id="path1267" />
    <path
       style="fill:#e3dbdb;stroke-width:1.33333"
       d="m 728.05512,907.60872 c -4.45967,-14.17695 -4.49143,-41.202 -0.0619,-52.66667 0.85694,-2.21797 -13.92225,-2.33333 -298.9428,-2.33333 -199.60179,0 -303.62151,0.46393 -311.14265,1.3877 -15.33819,1.88388 -22.740402,5.60666 -25.077802,12.6123 -2.69788,8.08606 -1.51011,27.62337 1.96607,32.33949 4.36176,5.91757 14.293192,8.48375 37.146702,9.59831 11,0.53646 149.79043,1.06992 308.4232,1.18546 274.13421,0.19966 288.38682,0.0945 287.6892,-2.12326 z"
       transform="translate(-49.265033,-44.871498)"
       id="path1265" />
  </g>
</svg>
