<?xml version="1.0" encoding="UTF-8" standalone="no"?>
<!-- Created with Inkscape (http://www.inkscape.org/) -->

<svg
   version="1.1"
   id="svg1256"
   width="660"
   height="896"
   viewBox="0 0 660 896"
   sodipodi:docname="2b.svg"
   inkscape:version="1.2.2 (732a01da63, 2022-12-09, custom)"
   xmlns:inkscape="http://www.inkscape.org/namespaces/inkscape"
   xmlns:sodipodi="http://sodipodi.sourceforge.net/DTD/sodipodi-0.dtd"
   xmlns="http://www.w3.org/2000/svg"
   xmlns:svg="http://www.w3.org/2000/svg">
  <defs
     id="defs1260" />
  <sodipodi:namedview
     id="namedview1258"
     pagecolor="#ffffff"
     bordercolor="#000000"
     borderopacity="0.25"
     inkscape:showpageshadow="2"
     inkscape:pageopacity="0.0"
     inkscape:pagecheckerboard="0"
     inkscape:deskcolor="#d1d1d1"
     showgrid="false"
     inkscape:zoom="0.85518932"
     inkscape:cx="336.76753"
     inkscape:cy="442.59206"
     inkscape:window-width="1846"
     inkscape:window-height="1016"
     inkscape:window-x="0"
     inkscape:window-y="0"
     inkscape:window-maximized="1"
     inkscape:current-layer="layer1" />
  <g
     inkscape:groupmode="layer"
     id="layer1"
     inkscape:label="Layer 1">
    <path
       style="fill:#000000;stroke-width:1.33333"
       d="m 79.187163,927.06256 c -0.45322,-0.73334 -5.13863,-1.3422 -10.41202,-1.35304 -25.32343,-0.052 -41.97033,-9.1549 -51.45582,-28.13704 l -3.96565,-7.93598 -0.52578,5.04636 c -0.28918,2.7755 -0.62665,-190.10364 -0.74992,-428.62032 L 11.853833,32.395872 H 308.5205 c 181.64446,0 296.53742,0.47942 296.33333,1.236526 -0.28436,1.054865 57.97471,49.623273 64.66667,53.910186 2.21412,1.418375 2.33333,22.937786 2.33333,421.174026 V 928.39589 H 375.93252 c -195.84262,0 -296.199997,-0.45092 -296.745357,-1.33333 z"
       transform="translate(-11.853833,-32.395872)"
       id="path1266" />
    <path
       style="fill:#ffe680;stroke-width:1.33333"
       d="m 595.06048,44.234697 -2.53998,-2.827843 -282.70248,0.56528 c -155.48638,0.310904 -283.446157,1.024892 -284.355087,1.58664 -0.90893,0.561748 -1.3074,1.579901 -0.88549,2.262563 0.46959,0.759809 111.740337,1.241202 286.895057,1.241202 h 286.12797 z"
       transform="translate(-11.853833,-32.395872)"
       id="path1327" />
    <path
       style="fill:#ffe680;stroke-width:1.33333"
       d="m 605.18716,52.395873 c -3.2844,-2.569099 -7.52157,-2.607371 -288.66666,-2.607371 -283.417847,0 -285.310957,0.0175 -281.999997,2.607371 3.2844,2.569098 7.52157,2.60737 288.666657,2.60737 283.41786,0 285.31096,-0.01751 282,-2.60737 z"
       transform="translate(-11.853833,-32.395872)"
       id="path1325" />
    <path
       style="fill:#ffe680;stroke-width:1.33333"
       d="m 616.16612,61.690122 -4.35436,-3.960916 h -283.3123 c -155.82176,0 -283.312297,0.27837 -283.312297,0.618599 0,0.340229 2.23929,2.140229 4.97618,4 l 4.97618,3.381401 282.690477,-0.03908 282.6905,-0.03909 z"
       transform="translate(-11.853833,-32.395872)"
       id="path1323" />
    <path
       style="fill:#ffe680;stroke-width:1.33333"
       d="m 631.85383,75.313284 c 0,-0.595423 -1.77571,-2.395423 -3.94601,-4 l -3.946,-2.917411 -281.72067,0.0424 C 85.713513,68.476893 60.758973,68.66832 63.187163,70.578946 c 7.57811,5.962821 -5.14618,5.709591 289.666667,5.764738 153.45,0.0287 279,-0.434976 279,-1.0304 z"
       transform="translate(-11.853833,-32.395872)"
       id="path1321" />
    <path
       style="fill:#ffe680;stroke-width:1.33333"
       d="m 57.853833,77.872612 c -19.77069,-12.766359 -26.96161,-17.248156 -31,-19.320994 -4.23721,-2.174885 -4.33333,-2.160409 -4.33333,0.652579 0,6.471008 14.97335,16.262926 32.66666,21.362568 11.39546,3.284448 11.60212,3.075658 2.66667,-2.694153 z"
       transform="translate(-11.853833,-32.395872)"
       id="path1319" />
    <path
       style="fill:#ffe680;stroke-width:1.33333"
       d="m 642.52053,84.834195 c 0,-0.492258 -0.99299,-1.992258 -2.20666,-3.333334 -2.12445,-2.3475 -12.6641,-2.438321 -282.96237,-2.438321 H 76.595783 l 4.62904,3.267951 4.62904,3.267951 278.333327,0.06538 C 517.2705,85.699782 642.5205,85.326449 642.5205,84.834193 Z"
       transform="translate(-11.853833,-32.395872)"
       id="path1317" />
    <path
       style="fill:#552200;stroke-width:1.33333"
       d="m 659.12596,136.7292 -0.9094,-37.666659 h -63.29443 -63.29442 l 5.1133,5.769649 c 2.81216,3.17331 31.51315,33.80866 63.77982,68.07856 l 58.66666,62.30891 0.42386,-30.4119 c 0.23312,-16.72654 0.0147,-47.36189 -0.48556,-68.07856 z"
       transform="translate(-11.853833,-32.395872)"
       id="path1315" />
    <path
       style="fill:#552200;stroke-width:1.33333"
       d="m 659.12696,894.72922 c 0.4912,-12.65 0.7057,-43.28263 0.47666,-68.07252 l -0.41646,-45.07251 -42.63846,45.40584 c -23.45115,24.97323 -43.10115,45.40586 -43.66667,45.40586 -0.56551,0 -1.0282,0.63409 -1.0282,1.4091 0,0.77502 -6.50515,8.12502 -14.45588,16.33334 -7.95072,8.20832 -17.02715,17.77423 -20.16981,21.25756 l -5.71394,6.33333 h 63.35983 63.35983 z"
       transform="translate(-11.853833,-32.395872)"
       id="path1313" />
    <path
       style="fill:#aa4400;stroke-width:1.33333"
       d="m 78.596913,904.06256 c 0.33989,-60.78522 -0.22893,-418.42804 -0.94439,-593.78141 L 76.770763,94.166428 64.677653,91.848206 c -13.74085,-2.63409 -29.78318,-8.452069 -37.15715,-13.475565 l -5,-3.406237 0.0293,406.381406 c 0.0284,394.74413 0.10101,406.53937 2.53402,411.89743 3.68188,8.10832 11.23223,15.78085 18.6843,18.98664 6.25106,2.68913 18.95524,4.96446 29.7524,5.32868 l 5,0.16866 0.0764,-13.66666 z"
       transform="translate(-11.853833,-32.395872)"
       id="path1311" />
    <path
       style="fill:#aa4400;stroke-width:1.33333"
       d="m 529.62707,906.06256 c 6.83779,-7.15 14.78609,-15.64962 17.66288,-18.88803 2.8768,-3.23842 7.03055,-7.72738 9.23055,-9.97546 2.2,-2.24808 26.64664,-28.09846 54.32585,-57.4453 l 50.32587,-53.35788 -0.0123,-258.00001 -0.0123,-258.00001 -72.9802,-77.6258 L 515.18716,95.144283 301.5205,95.103412 87.853833,95.06254 v 239.77893 c 0,131.87842 0.39923,317.27843 0.88718,412.00001 l 0.88717,172.22108 H 303.41144 517.19471 Z"
       transform="translate(-11.853833,-32.395872)"
       id="path1309" />
  </g>
</svg>
