<?xml version="1.0" standalone="no"?><!-- Generator: Gravit.io --><svg xmlns="http://www.w3.org/2000/svg" xmlns:xlink="http://www.w3.org/1999/xlink" style="isolation:isolate" viewBox="0 0 450 450" width="450" height="450"><defs><clipPath id="_clipPath_xx40bpEUwKO9EjNsXCjm651ivNdYZt5m"><rect width="450" height="450"/></clipPath></defs><g clip-path="url(#_clipPath_xx40bpEUwKO9EjNsXCjm651ivNdYZt5m)"><g id="Group"><path d="M 110.9 79.624 L 339.1 79.624 C 366.089 79.624 388 101.536 388 128.524 L 388 357.336 C 388 384.324 366.089 406.236 339.1 406.236 L 110.9 406.236 C 83.911 406.236 62 384.324 62 357.336 L 62 128.524 C 62 101.536 83.911 79.624 110.9 79.624 Z" style="stroke:none;fill:#FF5855;stroke-miterlimit:10;"/><path d="M 110.9 17.99 L 339.1 17.99 C 366.089 17.99 388 39.901 388 66.89 L 388 295.701 C 388 322.69 366.089 344.601 339.1 344.601 L 110.9 344.601 C 83.911 344.601 62 322.69 62 295.701 L 62 66.89 C 62 39.901 83.911 17.99 110.9 17.99 Z" style="stroke:none;fill:#FF5855;stroke-miterlimit:10;"/><path d=" M 342.36 406.236 L 101.273 406.236 C 79.598 406.236 62 388.638 62 366.963 L 62 366.963 C 62 345.288 79.598 327.69 101.273 327.69 L 388 327.69 L 388 360.596 C 388 385.785 367.549 406.236 342.36 406.236 Z " fill="rgb(242,240,231)"/><path d=" M 140.24 366.963 L 140.24 432.01 L 179.36 406.236 L 215.22 432.01 L 215.22 366.963 L 140.24 366.963 Z " fill="rgb(249,92,80)"/><rect x="313.02" y="17.99" width="35.86" height="309.7" transform="matrix(1,0,0,1,0,0)" fill="rgb(255,200,107)"/><path d="M 106.163 360.29 L 366.81 360.29 C 369.509 360.29 371.7 362.481 371.7 365.18 L 371.7 365.18 C 371.7 367.879 369.509 370.07 366.81 370.07 L 106.163 370.07 C 103.464 370.07 101.273 367.879 101.273 365.18 L 101.273 365.18 C 101.273 362.481 103.464 360.29 106.163 360.29 Z" style="stroke:none;fill:#D0CCCC;stroke-miterlimit:10;"/></g></g></svg>